<svg xmlns="http://www.w3.org/2000/svg" viewBox="0 0 1280 760" font-family="Segoe UI, DejaVu Sans, Arial, sans-serif">
<defs>
<marker id="aB" markerWidth="9" markerHeight="9" refX="7" refY="4.5" orient="auto"><path d="M0,0 L9,4.5 L0,9 z" fill="rgb(37,99,235)"/></marker>
<marker id="aR" markerWidth="9" markerHeight="9" refX="7" refY="4.5" orient="auto"><path d="M0,0 L9,4.5 L0,9 z" fill="rgb(220,38,38)"/></marker>
<marker id="aD" markerWidth="9" markerHeight="9" refX="7" refY="4.5" orient="auto"><path d="M0,0 L9,4.5 L0,9 z" fill="rgb(31,41,55)"/></marker>
<marker id="aG" markerWidth="9" markerHeight="9" refX="7" refY="4.5" orient="auto"><path d="M0,0 L9,4.5 L0,9 z" fill="rgb(148,163,184)"/></marker>
</defs>
<rect width="1280" height="760" fill="white"/>
<text x="590" y="34" text-anchor="middle" font-size="26" font-weight="bold" fill="rgb(31,41,55)">Credit Card Fraud Detection — Azure Data Pipeline</text>
<text x="590" y="58" text-anchor="middle" font-size="14" fill="rgb(70,80,95)">Batch (historical) + Streaming (live)  →  one star schema  →  one dashboard</text>
<line x1="1015" y1="55" x2="1045" y2="55" stroke="rgb(37,99,235)" stroke-width="3"/>
<text x="1053" y="59" font-size="11" fill="rgb(70,80,95)">Batch flow</text>
<line x1="1015" y1="74" x2="1045" y2="74" stroke="rgb(220,38,38)" stroke-width="3"/>
<text x="1053" y="78" font-size="11" fill="rgb(70,80,95)">Streaming flow</text>
<line x1="1015" y1="93" x2="1045" y2="93" stroke="rgb(31,41,55)" stroke-width="3"/>
<text x="1053" y="97" font-size="11" fill="rgb(70,80,95)">Combined serving</text>
<line x1="1015" y1="112" x2="1045" y2="112" stroke="rgb(148,163,184)" stroke-width="3" stroke-dasharray="7,5"/>
<text x="1053" y="116" font-size="11" fill="rgb(70,80,95)">Orchestration / secrets</text>
<rect x="470" y="96" width="340" height="40" rx="8" fill="none" stroke="rgb(148,163,184)" stroke-width="2" stroke-dasharray="7,5"/>
<text x="640.0" y="114" text-anchor="middle" font-size="14" font-weight="bold" fill="rgb(31,41,55)">Azure Data Factory</text>
<text x="640.0" y="129" text-anchor="middle" font-size="11" fill="rgb(70,80,95)">orchestrates batch notebooks</text>
<line x1="640" y1="136" x2="640" y2="148" stroke="rgb(148,163,184)" stroke-width="2" stroke-dasharray="6,4" marker-end="url(#aG)"/>
<rect x="455" y="152" width="370" height="470" rx="10" fill="rgb(253,253,253)" stroke="rgb(210,215,222)" stroke-width="2"/>
<text x="640.0" y="176" text-anchor="middle" font-size="14" font-weight="bold" fill="rgb(31,41,55)">AZURE DATABRICKS</text>
<text x="640.0" y="192" text-anchor="middle" font-size="11" fill="rgb(70,80,95)">PySpark · Delta Lake · medallion</text>
<text x="482" y="220" font-size="11" font-weight="bold" fill="rgb(105,115,130)">BATCH LAYER</text>
<text x="482" y="490" font-size="11" font-weight="bold" fill="rgb(105,115,130)">STREAMING LAYER  (Structured Streaming)</text>
<rect x="30" y="228" width="175" height="60" rx="8" fill="rgb(248,250,252)" stroke="rgb(176,190,205)" stroke-width="2"/>
<text x="117.5" y="254.0" text-anchor="middle" font-size="14" font-weight="bold" fill="rgb(31,41,55)">Kaggle dataset CSV</text>
<text x="117.5" y="272.0" text-anchor="middle" font-size="11" fill="rgb(70,80,95)">historical · 10K rows</text>
<rect x="245" y="228" width="175" height="60" rx="8" fill="rgb(248,250,252)" stroke="rgb(176,190,205)" stroke-width="2"/>
<text x="332.5" y="254.0" text-anchor="middle" font-size="14" font-weight="bold" fill="rgb(31,41,55)">ADLS Gen2</text>
<text x="332.5" y="272.0" text-anchor="middle" font-size="11" fill="rgb(70,80,95)">raw container</text>
<rect x="480" y="229" width="96" height="58" rx="8" fill="rgb(245,224,206)" stroke="rgb(192,133,82)" stroke-width="2"/>
<text x="528.0" y="254.0" text-anchor="middle" font-size="14" font-weight="bold" fill="rgb(122,74,31)">Bronze</text>
<text x="528.0" y="272.0" text-anchor="middle" font-size="11" fill="rgb(122,74,31)">raw Delta</text>
<rect x="592" y="229" width="96" height="58" rx="8" fill="rgb(238,241,244)" stroke="rgb(148,163,184)" stroke-width="2"/>
<text x="640.0" y="254.0" text-anchor="middle" font-size="14" font-weight="bold" fill="rgb(71,85,105)">Silver</text>
<text x="640.0" y="272.0" text-anchor="middle" font-size="11" fill="rgb(71,85,105)">clean + enrich</text>
<rect x="704" y="224" width="100" height="68" rx="8" fill="rgb(251,239,201)" stroke="rgb(200,162,40)" stroke-width="2"/>
<text x="754.0" y="254.0" text-anchor="middle" font-size="14" font-weight="bold" fill="rgb(122,92,0)">Gold ★</text>
<text x="754.0" y="272.0" text-anchor="middle" font-size="11" fill="rgb(122,92,0)">star schema</text>
<rect x="860" y="228" width="175" height="60" rx="8" fill="rgb(248,250,252)" stroke="rgb(176,190,205)" stroke-width="2"/>
<text x="947.5" y="254.0" text-anchor="middle" font-size="14" font-weight="bold" fill="rgb(31,41,55)">Synapse Serverless</text>
<text x="947.5" y="272.0" text-anchor="middle" font-size="11" fill="rgb(70,80,95)">SQL views on gold</text>
<rect x="1080" y="228" width="170" height="60" rx="8" fill="rgb(248,250,252)" stroke="rgb(176,190,205)" stroke-width="2"/>
<text x="1165.0" y="254.0" text-anchor="middle" font-size="14" font-weight="bold" fill="rgb(31,41,55)">Power BI</text>
<text x="1165.0" y="272.0" text-anchor="middle" font-size="11" fill="rgb(70,80,95)">fraud detection dashboard</text>
<rect x="30" y="498" width="175" height="60" rx="8" fill="rgb(248,250,252)" stroke="rgb(176,190,205)" stroke-width="2"/>
<text x="117.5" y="524.0" text-anchor="middle" font-size="14" font-weight="bold" fill="rgb(31,41,55)">Python producer</text>
<text x="117.5" y="542.0" text-anchor="middle" font-size="11" fill="rgb(70,80,95)">Kaggle dataset CSV</text>
<rect x="245" y="498" width="175" height="60" rx="8" fill="rgb(248,250,252)" stroke="rgb(176,190,205)" stroke-width="2"/>
<text x="332.5" y="524.0" text-anchor="middle" font-size="14" font-weight="bold" fill="rgb(31,41,55)">Azure Event Hubs</text>
<text x="332.5" y="542.0" text-anchor="middle" font-size="11" fill="rgb(70,80,95)">'transactions' hub</text>
<rect x="480" y="499" width="96" height="58" rx="8" fill="rgb(245,224,206)" stroke="rgb(192,133,82)" stroke-width="2"/>
<text x="528.0" y="524.0" text-anchor="middle" font-size="14" font-weight="bold" fill="rgb(122,74,31)">Bronze</text>
<text x="528.0" y="542.0" text-anchor="middle" font-size="11" fill="rgb(122,74,31)">stream append</text>
<rect x="592" y="499" width="96" height="58" rx="8" fill="rgb(238,241,244)" stroke="rgb(148,163,184)" stroke-width="2"/>
<text x="640.0" y="524.0" text-anchor="middle" font-size="14" font-weight="bold" fill="rgb(71,85,105)">Silver</text>
<text x="640.0" y="542.0" text-anchor="middle" font-size="11" fill="rgb(71,85,105)">dedupe stream</text>
<line x1="205" y1="258" x2="235" y2="258" stroke="rgb(37,99,235)" stroke-width="3" marker-end="url(#aB)"/>
<line x1="420" y1="258" x2="470" y2="258" stroke="rgb(37,99,235)" stroke-width="3" marker-end="url(#aB)"/>
<line x1="576" y1="258" x2="582" y2="258" stroke="rgb(37,99,235)" stroke-width="3" marker-end="url(#aB)"/>
<line x1="688" y1="258" x2="694" y2="258" stroke="rgb(37,99,235)" stroke-width="3" marker-end="url(#aB)"/>
<line x1="804" y1="258" x2="850" y2="258" stroke="rgb(31,41,55)" stroke-width="3" marker-end="url(#aD)"/>
<line x1="1035" y1="258" x2="1070" y2="258" stroke="rgb(31,41,55)" stroke-width="3" marker-end="url(#aD)"/>
<line x1="205" y1="528" x2="235" y2="528" stroke="rgb(220,38,38)" stroke-width="3" marker-end="url(#aR)"/>
<line x1="420" y1="528" x2="470" y2="528" stroke="rgb(220,38,38)" stroke-width="3" marker-end="url(#aR)"/>
<line x1="576" y1="528" x2="582" y2="528" stroke="rgb(220,38,38)" stroke-width="3" marker-end="url(#aR)"/>
<path d="M688,528 L754,528 L754,302" fill="none" stroke="rgb(220,38,38)" stroke-width="3" marker-end="url(#aR)"/>
<text x="746" y="384" text-anchor="end" font-size="13" font-weight="bold" fill="rgb(220,38,38)">MERGE</text>
<text x="746" y="400" text-anchor="end" font-size="11" fill="rgb(70,80,95)">dedupe on trans_num</text>
<text x="746" y="415" text-anchor="end" font-size="11" fill="rgb(70,80,95)">batch + stream unite</text>
<rect x="245" y="670" width="175" height="48" rx="8" fill="none" stroke="rgb(148,163,184)" stroke-width="2" stroke-dasharray="7,5"/>
<text x="332.5" y="690" text-anchor="middle" font-size="14" font-weight="bold" fill="rgb(31,41,55)">Azure Key Vault</text>
<text x="332.5" y="706" text-anchor="middle" font-size="11" fill="rgb(70,80,95)">secrets · no keys in code</text>
<line x1="420" y1="694" x2="508" y2="624" stroke="rgb(148,163,184)" stroke-width="2" stroke-dasharray="6,4"/>
</svg>